<svg viewBox="0 0 24 24" fill="none" xmlns="http://www.w3.org/2000/svg">
<path d="M12.6431 13C12.6431 13.5523 12.1954 14 11.6431 14C11.5446 14 11.3877 13.9619 11.1866 13.859C10.9918 13.7592 10.7862 13.614 10.5989 13.4422C10.4111 13.27 10.2539 13.0822 10.1468 12.9042C10.036 12.7202 10 12.5822 10 12.5C10 11.9477 10.4477 11.5 11 11.5C11.0985 11.5 11.2554 11.5381 11.4564 11.641C11.6513 11.7408 11.8569 11.886 12.0442 12.0578C12.2319 12.23 12.3892 12.4178 12.4963 12.5958C12.607 12.7798 12.6431 12.9178 12.6431 13Z" fill="#be353a" stroke="#be353a"/>
<path d="M19.3668 14.6585C20.0577 13.8375 20.661 12.9465 21.1668 12.0002C21.1668 12.0002 17.8335 5.33352 12.0002 5.33352C11.4542 5.33223 10.9099 5.38978 10.3765 5.50508M13.7668 13.7669C13.538 14.0125 13.262 14.2095 12.9553 14.3461C12.6486 14.4828 12.3176 14.5562 11.9819 14.5622C11.6462 14.5681 11.3128 14.5063 11.0015 14.3806C10.6902 14.2549 10.4074 14.0677 10.17 13.8303C9.93264 13.5929 9.74549 13.3101 9.61975 12.9988C9.49402 12.6875 9.43227 12.3541 9.43819 12.0184C9.44411 11.6828 9.51759 11.3517 9.65423 11.0451C9.79087 10.7384 9.98787 10.4624 10.2335 10.2335M16.9502 16.9502C15.5257 18.036 13.7911 18.6376 12.0002 18.6669C6.16683 18.6669 2.8335 12.0002 2.8335 12.0002C3.87007 10.0684 5.30778 8.38069 7.05016 7.05018L16.9502 16.9502Z" stroke="#be353a" stroke-width="1.6" stroke-linecap="round" stroke-linejoin="round"/>
<path d="M2.8335 2.8335L21.1668 21.1668" stroke="#be353a" stroke-width="1.6" stroke-linecap="round" stroke-linejoin="round"/>
</svg>
