<svg viewBox="0 0 52 24" fill="none" xmlns="http://www.w3.org/2000/svg">
<path d="M0 24V0H8.99333C12.6067 0 15.2565 0.483221 17.0231 1.5302C18.7093 2.57718 19.5926 4.10738 19.5926 6.20134C19.5926 7.57047 19.1911 8.77852 18.3079 9.66443C17.4246 10.5503 16.2201 11.1946 14.4536 11.5973C16.3807 11.9195 17.9064 12.6443 18.7896 13.6107C19.7532 14.5772 20.235 15.8658 20.235 17.4765C20.235 19.651 19.432 21.3423 17.9064 22.3893C16.3807 23.5168 14.0521 24 10.9205 24H0ZM6.42381 9.74497H8.99333C10.4387 9.74497 11.4826 9.50336 12.1249 9.10067C12.7673 8.69799 13.0885 7.97316 13.0885 7.00671C13.0885 6.12081 12.7673 5.47651 12.0446 4.99329C11.322 4.51007 10.3584 4.34899 8.99333 4.34899H6.42381V9.74497ZM8.99333 19.651C10.5993 19.651 11.8037 19.4094 12.4461 18.9262C13.1688 18.443 13.49 17.7181 13.49 16.6711C13.49 15.7047 13.0885 14.9799 12.3658 14.4966C11.6432 14.0134 10.519 13.7718 8.91303 13.7718H6.34351V19.651H8.99333Z" fill="#EA4444"/>
<path d="M22.4833 24V0H33.4038C36.5354 0 38.864 0.644295 40.47 1.93289C42.0759 3.22148 42.8789 5.15436 42.8789 7.65101C42.8789 10.1477 42.0759 12 40.47 13.3691C38.864 14.7383 36.696 15.4631 33.8053 15.4631H28.9874V24H22.4833ZM29.148 10.7919H32.119C33.5644 10.7919 34.6083 10.5503 35.2506 9.98658C35.893 9.50336 36.2945 8.69799 36.2945 7.57047C36.2945 6.52349 35.9733 5.71812 35.3309 5.2349C34.6886 4.75168 33.6447 4.51007 32.1993 4.51007H29.2283V10.7919H29.148Z" fill="#EA4444"/>
<path d="M45.2076 0H51.792V24H45.2076V0Z" fill="#EA4444"/>
</svg>
