<svg viewBox="0 0 24 24" fill="none" xmlns="http://www.w3.org/2000/svg">
<path d="M2.25 15V6C2.25 5.58579 2.58579 5.25 3 5.25H21C21.4142 5.25 21.75 5.58579 21.75 6V18C21.75 18.4142 21.4142 18.75 21 18.75H11.5" fill="none" stroke="#3d5159" stroke-width="1.6" stroke-linecap="round" stroke-linejoin="round"/>
<path d="M15.75 15.75H18.75" fill="none" stroke="#3d5159" stroke-width="1.6" stroke-linecap="round" stroke-linejoin="round"/>
<path d="M12.5 15.75H12.75" fill="none" stroke="#3d5159" stroke-width="1.6" stroke-linecap="round" stroke-linejoin="round"/>
<path d="M2.25 9.08438H21.75" fill="none" stroke="#3d5159" stroke-width="1.6" stroke-linecap="round" stroke-linejoin="round"/>
<path d="M6 19.125C8.69239 19.125 10.875 18.1176 10.875 16.875C10.875 15.6324 8.69239 14.625 6 14.625C3.30761 14.625 1.125 15.6324 1.125 16.875C1.125 18.1176 3.30761 19.125 6 19.125Z" fill="none" stroke="#3d5159" stroke-width="1.3" stroke-linecap="round" stroke-linejoin="round"/>
<path d="M6 19.125V21.375" fill="none" stroke="#3d5159" stroke-width="1.3" stroke-linecap="round" stroke-linejoin="round"/>
<path d="M1.125 16.875V19.125C1.125 20.25 3 21.375 6 21.375C9 21.375 10.875 20.25 10.875 19.125V16.875" fill="none" stroke="#3d5159" stroke-width="1.3" stroke-linecap="round" stroke-linejoin="round"/>
<path d="M9 18.6609V20.9109" fill="none" stroke="#3d5159" stroke-width="1.3" stroke-linecap="round" stroke-linejoin="round"/>
<path d="M3 18.6609V20.9109" fill="none" stroke="#3d5159" stroke-width="1.3" stroke-linecap="round" stroke-linejoin="round"/>
</svg>
